ply
format ascii 1.0
comment Created in Blender version 4.5.1 LTS
element vertex 4
property float x
property float y
property float z
property float nx
property float ny
property float nz
property float s
property float t
element face 2
property list uchar uint vertex_indices
end_header
1 0.99999994 8.742276e-08 -4.500026e-15 8.742277e-08 -1 1 0
-1 -0.99999994 -8.742276e-08 -4.500026e-15 8.742277e-08 -1 0 1
-0.99999994 1 8.742278e-08 -4.500026e-15 8.742277e-08 -1 0 0
0.99999994 -1 -8.742278e-08 -4.500026e-15 8.742277e-08 -1 1 1
3 0 1 2
3 0 3 1
